<svg width="166" height="44" viewBox="0 0 166 44" fill="none" xmlns="http://www.w3.org/2000/svg">
<g clip-path="url(#clip0_1863_15991)">
<path d="M38.88 11H38V33H38.88V11Z" fill="#2F54EB"/>
<path d="M44.8799 27.2307C44.927 26.8003 45.0567 26.3876 45.2631 26.0103C45.4576 25.633 45.717 25.2911 46.0295 25.0081C47.35 25.8099 48.5999 26.2108 49.7848 26.2108C50.3036 26.2108 50.6809 26.0929 50.9226 25.857C51.1584 25.633 51.2881 25.3147 51.2822 24.9845C51.2822 24.4068 50.8931 23.947 50.115 23.6168L47.9337 22.6912C47.0847 22.308 46.4304 21.8482 45.9705 21.3117C45.5166 20.7753 45.2867 20.0914 45.2867 19.2719C45.2808 18.7355 45.3987 18.2049 45.6286 17.7156C45.8585 17.2439 46.1887 16.8254 46.5895 16.4952C47.0258 16.1356 47.5269 15.8644 48.0634 15.6876C48.6706 15.4871 49.3073 15.3928 49.9499 15.3987C51.3294 15.3987 52.7266 15.7524 54.1356 16.454C54.0766 17.4031 53.7406 18.1459 53.1334 18.6765C51.8777 18.0693 50.7634 17.7686 49.8025 17.7686C49.3073 17.7686 48.9359 17.8806 48.6942 18.0988C48.4466 18.3228 48.3228 18.5763 48.3228 18.8593C48.3228 19.3427 48.6883 19.7318 49.4134 20.0265L51.636 20.9698C52.5733 21.3648 53.2749 21.8718 53.7347 22.4908C54.2004 23.1098 54.4304 23.8232 54.4304 24.6367C54.4363 25.185 54.3301 25.7273 54.1179 26.2285C53.9057 26.7119 53.5873 27.1363 53.1805 27.4783C52.7679 27.832 52.255 28.1032 51.636 28.3036C51.0169 28.5041 50.2977 28.5984 49.4724 28.5984C47.8688 28.6043 46.336 28.1444 44.8799 27.2307ZM60.7443 24.3596H59.2822V28.3213C58.7929 28.4038 58.2977 28.4392 57.8025 28.4333C57.1953 28.4333 56.706 28.3979 56.3228 28.3213V15.7701L56.4525 15.6404C57.5254 15.6168 58.4156 15.5991 59.1289 15.5873C59.8423 15.5756 60.3788 15.5697 60.7502 15.5697C61.381 15.5638 62.0118 15.6581 62.6131 15.8467C63.1437 16.0177 63.633 16.3007 64.0457 16.678C64.4525 17.0612 64.7649 17.5328 64.9595 18.0575C65.1776 18.6058 65.2837 19.2425 65.2837 19.9558C65.2837 20.6691 65.1717 21.3058 64.9477 21.8541C64.7413 22.3788 64.4289 22.8445 64.0221 23.2336C63.6094 23.6168 63.1201 23.8998 62.5895 24.0767C61.9941 24.2712 61.3692 24.3655 60.7443 24.3596ZM59.2822 17.8217V22.1371C59.6301 22.1253 59.9012 22.1135 60.1076 22.1076C60.3139 22.1017 60.4436 22.0958 60.5085 22.0958C60.8445 22.0958 61.1216 22.0369 61.3397 21.919C61.5519 21.8069 61.7347 21.6537 61.8762 21.4532C62.0177 21.2469 62.1179 21.017 62.171 20.7753C62.2358 20.51 62.2653 20.2329 62.2653 19.9617C62.2653 19.6964 62.2358 19.4252 62.171 19.1658C62.1179 18.9241 62.0177 18.6883 61.8821 18.482C61.7524 18.2874 61.5755 18.1223 61.3751 18.0103C61.1452 17.8865 60.8917 17.8276 60.6323 17.8335H59.8718L59.2822 17.8217ZM69.9646 24.8784C70.3006 25.8394 70.9727 26.3228 71.9808 26.3228C72.4878 26.3228 72.8946 26.199 73.2129 25.9455C73.5313 25.6861 73.7848 25.3559 73.9558 24.9845C74.1444 24.5719 74.2623 24.1297 74.3154 23.6817C74.3743 23.21 74.4097 22.7325 74.4097 22.255C74.4097 21.8246 74.392 21.3412 74.3625 20.8106C74.339 20.3036 74.2446 19.8025 74.0914 19.3191C73.9558 18.877 73.7141 18.4761 73.3898 18.1518C73.0715 17.8394 72.5998 17.6802 71.9808 17.6802C71.3913 17.6802 70.9373 17.8335 70.619 18.1341C70.3006 18.4466 70.0589 18.8298 69.9174 19.2543C69.7583 19.7141 69.664 20.1857 69.6286 20.6691C69.5932 21.1702 69.5755 21.6124 69.5755 21.9956C69.5696 22.5026 69.5991 23.0096 69.6581 23.5166C69.717 23.9705 69.8231 24.4304 69.9646 24.8784ZM68.4672 27.4311C67.1466 26.3346 66.4864 24.5247 66.4864 22.0074C66.4864 20.9226 66.6102 19.9676 66.8637 19.1481C67.1172 18.3287 67.4827 17.6389 67.9543 17.0848C68.4259 16.5365 69.0155 16.1002 69.6875 15.8232C70.3655 15.5402 71.1319 15.3987 71.9808 15.3987C72.8297 15.3987 73.602 15.5402 74.2859 15.8232C74.958 16.1002 75.5593 16.5365 76.025 17.0907C76.5026 17.6507 76.8622 18.3405 77.1157 19.1658C77.3692 19.9912 77.493 20.9344 77.493 22.0074C77.493 23.0803 77.3692 24.0295 77.1157 24.8489C76.8622 25.6684 76.4967 26.3581 76.025 26.9123C75.5534 27.4665 74.958 27.8968 74.2859 28.168C73.602 28.451 72.8356 28.5925 71.9808 28.5925C70.5777 28.5984 69.4046 28.2093 68.4672 27.4311ZM84.0899 18.1165L84.1076 19.4842V28.3154C83.6124 28.3979 83.1112 28.4333 82.6101 28.4274C82.1208 28.4333 81.6315 28.3979 81.1481 28.3154V18.1165L79.9631 18.1341H78.0589C77.9115 17.3206 77.9115 16.4834 78.0589 15.6699H87.2203C87.3264 16.0472 87.3736 16.4422 87.3677 16.8372C87.3677 17.297 87.2439 17.6271 86.9963 17.8276C86.7487 18.028 86.3537 18.1341 85.8113 18.1341H85.2748L84.1076 18.1165H84.0899ZM94.4185 18.1165L94.4362 19.4842V28.3154C93.941 28.3979 93.4399 28.4333 92.9388 28.4274C92.4495 28.4333 91.9602 28.3979 91.4768 28.3154V18.1165L90.2918 18.1341H88.3876C88.2402 17.3206 88.2402 16.4834 88.3876 15.6699H97.549C97.6551 16.0472 97.7022 16.4422 97.6964 16.8372C97.6964 17.297 97.5725 17.6271 97.3249 17.8276C97.0773 18.028 96.6824 18.1341 96.14 18.1341H95.6035L94.4362 18.1165H94.4185ZM101.97 24.5778L101.953 25.9101V25.9278C102.519 25.9042 102.979 25.8924 103.321 25.8924H107.612C107.618 26.2461 107.601 26.5999 107.559 26.9477C107.412 27.8968 106.781 28.3744 105.673 28.3744H100.75C100.22 28.3744 99.801 28.2211 99.5003 27.9145C99.1997 27.608 99.0464 27.1894 99.0464 26.6588V15.8114L99.1761 15.6817H107.153C107.229 16.0649 107.265 16.454 107.265 16.849C107.259 17.297 107.17 17.745 107.005 18.1636H101.953L101.97 19.496V20.7929C102.289 20.7812 102.713 20.7753 103.226 20.7753H106.056C106.174 21.1585 106.227 21.5593 106.221 21.9602C106.227 22.3729 106.168 22.7856 106.056 23.1806H101.965V24.5895L101.97 24.5778ZM118.743 19.5844C118.743 19.9794 118.684 20.3685 118.56 20.7399C118.442 21.0877 118.277 21.4178 118.071 21.7185C117.87 22.0074 117.629 22.2609 117.351 22.479C117.092 22.6853 116.803 22.8504 116.491 22.9683C117.133 23.2041 117.605 23.7701 117.917 24.6721L118.472 26.2461C118.684 26.8651 118.99 27.3191 119.397 27.6139C119.214 27.8615 118.937 28.0678 118.566 28.2329C118.183 28.4038 117.764 28.4864 117.346 28.4805C116.903 28.4805 116.556 28.3567 116.308 28.1032C116.06 27.8497 115.83 27.4075 115.624 26.7767L114.958 24.8313C114.822 24.4598 114.64 24.1769 114.41 23.9764C114.18 23.776 113.838 23.6817 113.384 23.6817H112.617V28.3095C112.128 28.392 111.633 28.4274 111.138 28.4215C110.648 28.4274 110.159 28.392 109.676 28.3095V15.7701L109.805 15.6404C110.878 15.6168 111.78 15.5991 112.517 15.5873C113.254 15.5756 113.826 15.5697 114.25 15.5697C114.875 15.5638 115.5 15.6463 116.102 15.8173C116.62 15.9647 117.104 16.2182 117.517 16.566C117.912 16.9079 118.224 17.3383 118.424 17.8276C118.637 18.3287 118.743 18.9182 118.743 19.5844ZM112.617 17.7863V21.412C113.172 21.412 113.649 21.4002 114.044 21.3825C114.439 21.3648 114.757 21.2882 114.999 21.1585C115.235 21.0347 115.424 20.846 115.547 20.6102C115.671 20.3744 115.73 20.0324 115.73 19.5903C115.73 18.3935 115.152 17.7922 113.991 17.7922H113.225L112.617 17.7863Z" fill="#2F54EB"/>
<path d="M15.6608 0.89767L4.96709 3.91879V4.62269C4.96709 5.39339 2.7038 6.77036 0.673418 7.52051L0 7.7774V8.41965V24.2754C0 29.7525 2.69367 34.875 7.79747 39.083C11.6101 42.2326 15.3873 43.7534 15.5443 43.8202L16 44L16.4557 43.8202C16.6127 43.7586 20.3899 42.2326 24.2025 39.083C29.3013 34.8699 32 29.7473 32 24.2754V7.7774L31.3266 7.52564C29.2962 6.77036 27.038 5.39339 27.038 4.62783V3.91879L16 0.800049L15.6608 0.89767ZM16 2.83982L24.9823 5.37797C25.6405 7.11461 28.3848 8.45562 29.7924 9.04648V24.2754C29.7924 29.2541 27.4228 33.7498 22.7443 37.629C19.9241 39.9616 17.0785 41.3643 16 41.8524C14.9215 41.3643 12.0759 39.9616 9.26076 37.629C4.58228 33.7498 2.21266 29.2541 2.21266 24.2754V9.04648C3.62025 8.45562 6.36456 7.10947 7.02278 5.37797L16 2.83982Z" fill="#2F54EB"/>
<path fill-rule="evenodd" clip-rule="evenodd" d="M151.629 19.2715C151.747 19.7265 151.8 20.2096 151.788 20.7207C151.969 20.7644 152.143 20.8018 152.311 20.8329C152.486 20.8641 152.676 20.8797 152.882 20.8797C153.399 20.8797 153.798 20.755 154.079 20.5057C154.365 20.2501 154.509 19.8481 154.509 19.2995C154.509 18.5827 154.312 17.9344 153.92 17.3547C153.527 16.7688 152.972 16.3044 152.255 15.9616C151.545 15.6125 150.71 15.438 149.75 15.438C148.765 15.438 147.861 15.6717 147.038 16.1392C146.222 16.6067 145.567 17.336 145.075 18.3271C144.582 19.3182 144.336 20.5961 144.336 22.1606C144.336 22.971 144.42 23.7688 144.588 24.5542C144.757 25.3334 145.037 26.0409 145.43 26.6767C145.823 27.3125 146.346 27.8205 147.001 28.2007C147.661 28.581 148.478 28.7711 149.45 28.7711C150.13 28.7711 150.787 28.6807 151.423 28.4999C152.059 28.3192 152.639 28.0792 153.162 27.78C153.686 27.4808 154.129 27.1567 154.49 26.8076C154.421 26.471 154.253 26.1282 153.985 25.7791C153.723 25.4238 153.452 25.1526 153.172 24.9656C152.723 25.3022 152.234 25.6077 151.704 25.8819C151.18 26.15 150.6 26.284 149.965 26.284C149.129 26.284 148.481 25.9412 148.02 25.2555C147.559 24.5636 147.328 23.5382 147.328 22.1793C147.328 20.727 147.509 19.6206 147.87 18.8601C148.232 18.0996 148.827 17.7194 149.656 17.7194C150.223 17.7194 150.663 17.8628 150.974 18.1495C151.292 18.4362 151.511 18.8102 151.629 19.2715ZM158.537 28.5841C158.799 28.5716 159.048 28.5436 159.285 28.5V24.4795C159.285 24.2177 159.282 23.9839 159.276 23.7782C159.269 23.5725 159.266 23.345 159.266 23.0957C159.397 23.0957 159.556 23.0988 159.743 23.105C159.93 23.1112 160.089 23.1144 160.22 23.1144H162.52C162.645 23.1144 162.801 23.1112 162.988 23.105C163.181 23.0988 163.34 23.0957 163.464 23.0957C163.464 23.345 163.461 23.5725 163.455 23.7782C163.449 23.9839 163.446 24.2177 163.446 24.4795V28.5C163.689 28.5436 163.941 28.5716 164.203 28.5841C164.471 28.5966 164.705 28.6028 164.904 28.6028C165.11 28.6028 165.334 28.5966 165.577 28.5841C165.821 28.5716 166.064 28.5436 166.307 28.5V15.7279C166.082 15.6842 165.833 15.6562 165.559 15.6437C165.285 15.6312 165.057 15.625 164.876 15.625C164.683 15.625 164.455 15.6312 164.194 15.6437C163.932 15.6562 163.683 15.6842 163.446 15.7279V19.3557C163.446 19.6175 163.449 19.8512 163.455 20.0569C163.461 20.2564 163.464 20.4839 163.464 20.7395C163.34 20.7395 163.181 20.7363 162.988 20.7301C162.801 20.7239 162.645 20.7208 162.52 20.7208H160.22C160.089 20.7208 159.93 20.7239 159.743 20.7301C159.556 20.7363 159.397 20.7395 159.266 20.7395C159.266 20.4839 159.269 20.2564 159.276 20.0569C159.282 19.8512 159.285 19.6175 159.285 19.3557V15.7279C159.048 15.6842 158.799 15.6562 158.537 15.6437C158.275 15.6312 158.048 15.625 157.854 15.625C157.674 15.625 157.446 15.6312 157.172 15.6437C156.898 15.6562 156.648 15.6842 156.424 15.7279V28.5C156.648 28.5436 156.898 28.5716 157.172 28.5841C157.446 28.5966 157.674 28.6028 157.854 28.6028C158.048 28.6028 158.275 28.5966 158.537 28.5841ZM143.139 26.153C143.139 26.9509 143.015 27.5493 142.765 27.9482C142.516 28.3472 142.014 28.5466 141.26 28.5466H136.202C135.691 28.5466 135.288 28.397 134.996 28.0978C134.709 27.7986 134.565 27.3904 134.565 26.873V15.8587L134.696 15.7278H142.681C142.725 15.9397 142.753 16.1392 142.765 16.3262C142.778 16.5132 142.784 16.6877 142.784 16.8498C142.784 17.0118 142.762 17.2113 142.719 17.4482C142.681 17.6788 142.625 17.9032 142.55 18.1214H138.642C138.343 18.1214 137.919 18.1151 137.37 18.1027C137.37 18.3582 137.374 18.5858 137.38 18.7852C137.386 18.9785 137.389 19.1998 137.389 19.4491V20.9264H138.1C138.33 20.9201 138.511 20.917 138.642 20.917H141.587C141.643 21.0916 141.684 21.291 141.709 21.5154C141.74 21.7336 141.756 21.9206 141.756 22.0764C141.756 22.2385 141.74 22.4286 141.709 22.6468C141.684 22.8587 141.643 23.0551 141.587 23.2358H138.642H138.1C137.869 23.2358 137.632 23.2327 137.389 23.2265V24.8908C137.389 25.1214 137.386 25.3333 137.38 25.5266C137.374 25.7198 137.37 25.938 137.37 26.1811V26.1904L138.016 26.1717C138.24 26.1593 138.48 26.153 138.736 26.153H143.139ZM127.023 18.7852C127.017 18.9847 127.014 19.2122 127.014 19.4678V28.4999C127.257 28.5435 127.506 28.5716 127.762 28.584C128.018 28.5965 128.245 28.6027 128.445 28.6027C128.644 28.6027 128.872 28.5965 129.127 28.584C129.383 28.5716 129.632 28.5435 129.875 28.4999V19.4678C129.875 19.2122 129.872 18.9847 129.866 18.7852C129.859 18.5795 129.856 18.3458 129.856 18.084H129.875C130.012 18.084 130.205 18.0871 130.455 18.0933C130.71 18.0996 130.907 18.1027 131.044 18.1027H131.68C132.197 18.1027 132.577 18.0061 132.82 17.8128C133.063 17.6196 133.185 17.2892 133.185 16.8217C133.185 16.641 133.173 16.4508 133.148 16.2514C133.123 16.0519 133.088 15.8774 133.045 15.7278H123.882C123.838 15.9397 123.807 16.1516 123.788 16.3636C123.776 16.5693 123.77 16.7563 123.77 16.9246C123.77 17.0867 123.776 17.2705 123.788 17.4762C123.807 17.6819 123.838 17.8907 123.882 18.1027H125.845C125.982 18.1027 126.176 18.0996 126.425 18.0933C126.68 18.0871 126.877 18.084 127.014 18.084H127.033C127.033 18.3458 127.03 18.5795 127.023 18.7852Z" fill="#2F54EB"/>
</g>
<defs>
<clipPath id="clip0_1863_15991">
<rect width="166" height="44" fill="white"/>
</clipPath>
</defs>
</svg>
