<svg width="288" height="224" viewBox="0 0 72 56" fill="none" xmlns="http://www.w3.org/2000/svg">
<path fill-rule="evenodd" clip-rule="evenodd" d="M35.6894 8.09039L25.898 10.8877V11.5395C25.898 12.2531 23.8256 13.5281 21.9666 14.2226L21.35 14.4605V21H23.3759V15.6356C24.6648 15.0885 27.1775 13.8421 27.7802 12.2388L36 9.88868L44.2244 12.2388C44.8271 13.8468 47.3398 15.0885 48.6286 15.6356V21H50.65V14.4605L50.0334 14.2274C48.1743 13.5281 46.1066 12.2531 46.1066 11.5442V10.8877L36 8L35.6894 8.09039ZM28.4895 43.4472C25.4786 40.9368 23.3837 38.0748 22.2744 35H24.3953C25.4282 37.5568 27.2437 39.9328 29.8294 42.1009C32.407 44.2607 35.0125 45.5595 36 46.0114C36.9875 45.5595 39.5929 44.2607 42.1752 42.1009C44.7609 39.9328 46.5763 37.5568 47.6093 35H49.7232C48.6126 38.0727 46.5173 40.9346 43.5104 43.4472C40.0195 46.3635 36.5609 47.7764 36.4172 47.8335L36 48L35.5827 47.8335L35.5604 47.8241C35.2281 47.6844 31.874 46.2745 28.4895 43.4472ZM13.7314 30.4314C13.6068 30.6601 13.5285 30.9102 13.5 31.171C14.3794 31.7248 15.305 32.0035 16.2733 32C16.7718 32 17.2061 31.9428 17.5799 31.8213C17.9537 31.6998 18.2634 31.5355 18.5127 31.3211C18.7583 31.1139 18.9506 30.8566 19.0787 30.5636C19.2069 30.2599 19.271 29.9312 19.2674 29.5989C19.2674 29.1059 19.1286 28.6736 18.8473 28.2984C18.5696 27.9232 18.146 27.616 17.5799 27.3766L16.2377 26.8049C15.7998 26.6263 15.5791 26.3905 15.5791 26.0975C15.5791 25.926 15.6539 25.7723 15.8034 25.6366C15.9494 25.5044 16.1737 25.4365 16.4727 25.4365C17.053 25.4365 17.7259 25.6187 18.4842 25.9867C18.8509 25.6651 19.0538 25.215 19.0894 24.6397C18.2385 24.2145 17.3948 24.0002 16.5617 24.0002C16.1737 23.9966 15.7892 24.0538 15.4225 24.1752C15.0985 24.2824 14.7959 24.4468 14.5324 24.6647C14.2903 24.8648 14.091 25.1185 13.9521 25.4043C13.8133 25.7009 13.7421 26.0224 13.7456 26.3476C13.7456 26.8442 13.8845 27.2587 14.1586 27.5838C14.4363 27.909 14.8315 28.1876 15.3441 28.4199L16.6614 28.9808C17.1313 29.1809 17.3663 29.4596 17.3663 29.8098C17.3699 30.0098 17.2915 30.2028 17.1491 30.3385C17.0032 30.4815 16.7753 30.5529 16.462 30.5529C15.7464 30.5529 14.9917 30.31 14.1942 29.824C14.0055 29.9955 13.8489 30.2028 13.7314 30.4314ZM22.1974 29.431H23.0803C23.4577 29.4346 23.835 29.3774 24.1946 29.2595C24.515 29.1523 24.8105 28.9808 25.0597 28.7486C25.3054 28.5128 25.4941 28.2305 25.6187 27.9125C25.754 27.5802 25.8216 27.1944 25.8216 26.762C25.8216 26.3297 25.7575 25.9438 25.6258 25.6116C25.5083 25.2936 25.3196 25.0077 25.074 24.7755C24.8248 24.5468 24.5293 24.3753 24.2089 24.2717C23.8457 24.1574 23.4648 24.1002 23.0839 24.1038C22.8596 24.1038 22.5356 24.1073 22.1048 24.1145C21.674 24.1216 21.1365 24.1324 20.4885 24.1466L20.4102 24.2253V31.832C20.6416 31.8785 20.9371 31.8999 21.3038 31.8999C21.6028 31.9035 21.9019 31.8821 22.1974 31.832V29.431ZM22.1974 28.084V25.4686L22.5534 25.4758H23.0127C23.1693 25.4722 23.3224 25.5079 23.4612 25.583C23.5823 25.6509 23.6891 25.7509 23.7674 25.8688C23.8493 25.9939 23.9098 26.1368 23.9419 26.2833C23.981 26.4405 23.9988 26.6048 23.9988 26.7656C23.9988 26.93 23.981 27.0979 23.9419 27.2587C23.9098 27.4052 23.8493 27.5445 23.7638 27.6696C23.6784 27.791 23.568 27.8839 23.4399 27.9518C23.3081 28.0233 23.1408 28.059 22.9379 28.059C22.9148 28.059 22.8781 28.0603 22.8264 28.062C22.7903 28.0632 22.747 28.0647 22.6958 28.0662C22.628 28.0681 22.5486 28.0711 22.4564 28.0746C22.3792 28.0775 22.2931 28.0808 22.1974 28.084ZM29.8659 30.6208C29.2571 30.6208 28.8513 30.3278 28.6483 29.7454C28.5629 29.4739 28.4988 29.1952 28.4632 28.9201C28.4276 28.6128 28.4098 28.3055 28.4134 27.9983C28.4134 27.766 28.4241 27.4981 28.4454 27.1944C28.4668 26.9014 28.5237 26.6155 28.6199 26.3369C28.7053 26.0796 28.8513 25.8474 29.0435 25.658C29.2358 25.4758 29.5099 25.3829 29.8659 25.3829C30.2397 25.3829 30.5245 25.4794 30.7168 25.6687C30.9126 25.8652 31.0585 26.1082 31.1404 26.3762C31.233 26.6691 31.29 26.9728 31.3042 27.2801C31.322 27.6017 31.3327 27.8947 31.3327 28.1555C31.3327 28.4449 31.3113 28.7343 31.2757 29.0201C31.2437 29.2917 31.1725 29.5596 31.0585 29.8098C30.9553 30.0348 30.8022 30.2349 30.61 30.3921C30.4177 30.5458 30.1721 30.6208 29.8659 30.6208ZM26.5479 28.0054C26.5479 29.5311 26.9466 30.628 27.7441 31.2925C28.3101 31.7641 29.0186 32 29.8659 31.9964C30.3821 31.9964 30.8449 31.9106 31.2579 31.7391C31.6638 31.5748 32.0233 31.314 32.3081 30.9781C32.593 30.6422 32.8137 30.2242 32.9668 29.7276C33.1199 29.2309 33.1946 28.6557 33.1946 28.0054C33.1946 27.3551 33.1199 26.7835 32.9668 26.2833C32.8137 25.7831 32.5965 25.365 32.3081 25.0256C32.0269 24.6897 31.6638 24.4253 31.2579 24.2574C30.8449 24.0859 30.3786 24.0002 29.8659 24.0002C29.3532 24.0002 28.8904 24.0859 28.481 24.2574C28.0752 24.4253 27.7191 24.6897 27.4343 25.022C27.1495 25.3579 26.9288 25.7759 26.7757 26.2725C26.6226 26.7692 26.5479 27.348 26.5479 28.0054ZM37.1891 26.4762L37.1784 25.6473H37.1891L37.894 25.658H38.218C38.5455 25.658 38.784 25.5937 38.9335 25.4722C39.0831 25.3507 39.1578 25.1506 39.1578 24.872C39.1614 24.6326 39.1329 24.3932 39.0688 24.1645H33.5364C33.4474 24.6576 33.4474 25.1649 33.5364 25.658H34.6863L35.4019 25.6473V31.8285C35.6938 31.8785 35.9893 31.8999 36.2848 31.8964C36.5874 31.8999 36.89 31.8785 37.1891 31.8285V26.4762ZM43.4264 26.4762L43.4157 25.6473H43.4264L44.1313 25.658H44.4553C44.7828 25.658 45.0214 25.5937 45.1709 25.4722C45.3204 25.3507 45.3952 25.1506 45.3952 24.872C45.3987 24.6326 45.3703 24.3932 45.3062 24.1645H39.7737C39.6847 24.6576 39.6847 25.1649 39.7737 25.658H40.9237L41.6392 25.6473V31.8285C41.9312 31.8785 42.2267 31.8999 42.5222 31.8964C42.8248 31.8999 43.1274 31.8785 43.4264 31.8285V26.4762ZM47.9656 30.3707L47.9763 29.5632L47.9727 29.5704V28.7164H50.4434C50.5111 28.477 50.5467 28.2269 50.5431 27.9768C50.5467 27.7339 50.5146 27.4909 50.4434 27.2587H48.7346C48.4248 27.2587 48.1685 27.2622 47.9763 27.2694V26.4833L47.9656 25.6759H51.0166C51.1163 25.4222 51.1697 25.1506 51.1733 24.8791C51.1733 24.6397 51.1519 24.4039 51.1056 24.1717H46.2888L46.2104 24.2503V30.8245C46.2104 31.146 46.303 31.3997 46.4846 31.5855C46.6661 31.7713 46.9189 31.8642 47.2393 31.8642H50.212C50.8813 31.8642 51.2623 31.5748 51.3513 30.9995C51.3762 30.7887 51.3869 30.5744 51.3833 30.36H48.7915C48.585 30.36 48.3074 30.3671 47.9656 30.3814V30.3707ZM57.9945 27.2372C58.0692 27.0121 58.1048 26.7763 58.1048 26.5369C58.1048 26.1332 58.0407 25.7759 57.9126 25.4722C57.7915 25.1757 57.6029 24.9148 57.3643 24.7076C57.1151 24.4968 56.8232 24.3432 56.5099 24.2538C56.1468 24.1502 55.7694 24.1002 55.392 24.1038C55.1357 24.1038 54.7903 24.1073 54.3453 24.1145C53.9003 24.1216 53.3556 24.1324 52.7077 24.1466L52.6294 24.2253V31.8249C52.9213 31.8749 53.2168 31.8964 53.5123 31.8928C53.8113 31.8964 54.1104 31.8749 54.4059 31.8249V29.0201H54.8687C55.1428 29.0201 55.3493 29.0773 55.4881 29.1988C55.627 29.3203 55.7373 29.4918 55.8192 29.7169L56.2215 30.8959C56.3461 31.2782 56.485 31.5462 56.6345 31.6998C56.784 31.8535 56.9941 31.9285 57.2611 31.9285C57.5138 31.9321 57.7666 31.8821 57.998 31.7784C58.2223 31.6784 58.3896 31.5533 58.5 31.4033C58.2544 31.2246 58.0692 30.9495 57.9411 30.5744L57.6064 29.6204C57.4177 29.0737 57.1329 28.7307 56.7449 28.5878C56.9335 28.5163 57.108 28.4163 57.2646 28.2913C57.432 28.1591 57.5779 28.0054 57.699 27.8303C57.8236 27.6481 57.9233 27.448 57.9945 27.2372ZM54.4059 27.6446V25.4472L54.7725 25.4508H55.2354C55.9367 25.4508 56.2856 25.8152 56.2856 26.5405C56.2856 26.8085 56.25 27.0157 56.1752 27.1586C56.1005 27.3016 55.9865 27.4159 55.8441 27.4909C55.6982 27.5695 55.5059 27.616 55.2674 27.6267C55.0289 27.6374 54.7405 27.6446 54.4059 27.6446Z" fill="#2F54EB"/>
</svg>
